<svg viewBox="0 0 223 223" fill="none" xmlns="http://www.w3.org/2000/svg">
<path d="M47.5542 0.735948C25.4282 4.69195 7.62623 21.068 2.01423 42.596C-0.00976612 50.37 -0.147766 54.924 0.0822339 115.23C0.220234 170.614 0.266234 171.902 1.18623 176.18C6.29223 199.226 22.6682 215.648 45.9442 221.076C48.9802 221.766 52.8442 221.904 77.7302 222.042C103.49 222.226 106.158 222.18 106.848 221.49C107.538 220.8 107.584 211.922 107.584 111.274C107.584 36.662 107.446 1.51795 107.124 0.873948C106.664 0.0459479 105.882 -5.21126e-05 78.9262 0.0459479C57.0302 0.0919479 50.4522 0.229948 47.5542 0.735948ZM89.1842 111.136V204.332L70.4622 204.102C53.2122 203.918 51.3722 203.826 47.9222 202.952C33.1102 199.134 22.1162 187.726 19.0342 172.868C18.0222 168.222 18.0222 53.774 18.9882 49.22C21.7482 36.294 30.7182 25.576 42.8162 20.7459C48.8882 18.3079 51.6942 18.0319 71.3822 17.9859L89.1842 17.9399V111.136Z" fill="#D4B830"/>
<path d="M51.5102 46.046C48.6122 46.598 44.1962 48.806 41.8502 50.876C37.0202 55.062 34.6282 60.996 34.9962 67.988C35.1802 71.622 35.4102 72.588 36.8822 75.532C39.0442 79.994 42.3102 83.26 46.7722 85.468C49.8542 86.986 50.6362 87.17 54.6382 87.308C58.2722 87.446 59.5602 87.308 61.9982 86.48C71.9802 83.122 78.0062 73.416 76.3042 63.48C74.3262 51.658 63.1022 43.746 51.5102 46.046Z" fill="#D4B830"/>
<rect x="140" y="157" width="61" height="47.3" fill="#2e2f2c" />
<path fill-rule="evenodd" clip-rule="evenodd" d="M129.664 111.136C129.664 50.324 129.802 0.460001 129.986 0.322001C130.124 0.138001 139.324 0 150.364 0C166.372 0 171.34 0.138001 174.56 0.690001C198.572 4.83 216.834 22.908 221.388 46.874C222.032 50.232 222.124 58.098 222.124 110.86C222.124 167.226 222.191 173.856 220.414 179.948C220.107 181 219.745 182.036 219.318 183.31C218.536 185.564 217.018 189.198 215.868 191.36C206.898 208.242 190.43 219.604 171.754 221.72C167.338 222.18 131.642 222.364 130.4 221.904C129.71 221.628 129.664 211.462 129.664 111.136ZM194.57 114.862C192.178 107.87 186.29 102.396 179.114 100.51C167.614 97.52 155.654 104.144 152.204 115.414C151.054 119.002 151.008 124.89 152.02 128.386C155.378 139.794 167.614 146.74 179.114 143.75C186.198 141.864 191.718 136.758 194.524 129.49C196.042 125.534 196.088 119.186 194.57 114.862ZM186.057 180.072C193.021 182.9 195.372 185.932 195.95 189.543C196.506 192.649 195.815 194.666 195.71 194.967C193.141 203.768 178.816 204.054 173.092 198.239C172.918 198.042 172.754 197.859 172.597 197.684C171.665 196.646 171.02 195.928 170.403 194.575C171.944 193.688 172.704 193.249 173.464 192.81C174.204 192.383 174.944 191.954 176.405 191.107C178.012 193.582 179.5 194.944 182.174 195.501C185.802 195.944 189.453 194.696 188.634 190.837C188.146 189.009 185.727 187.983 182.906 186.787C180.861 185.92 178.605 184.964 176.72 183.547C172.168 180.486 171.101 173.046 174.842 168.796C176.089 167.223 178.215 166.05 180.446 165.486C180.83 165.437 181.217 165.387 181.603 165.336C181.994 165.285 182.385 165.234 182.775 165.185C187.244 165.095 190.039 166.276 192.089 168.57C192.66 169.149 193.126 169.774 193.997 171.128C193.506 171.441 193.117 171.689 192.778 171.905C191.474 172.736 190.92 173.088 188.213 174.844C187.485 173.272 186.275 172.286 184.998 171.857C183.015 171.255 180.514 171.91 179.995 174.009C179.815 174.656 179.853 175.257 180.138 176.326C180.789 177.811 182.679 178.617 184.659 179.46C185.125 179.659 185.596 179.86 186.057 180.072ZM158.962 165.651H166.354C166.354 167.922 166.358 170.191 166.362 172.457C166.371 176.986 166.379 181.508 166.354 186.03C166.356 186.644 166.366 187.249 166.376 187.845C166.431 191.286 166.481 194.409 165.047 197.058C163.883 199.427 161.659 200.984 159.083 201.737C155.124 202.647 151.338 202.128 148.521 200.435C146.636 199.277 145.163 197.494 144.164 195.44C145.166 194.828 146.167 194.213 147.167 193.598C148.169 192.983 149.17 192.368 150.174 191.754C150.221 191.774 150.351 192.003 150.527 192.313C150.549 192.352 150.571 192.391 150.594 192.431C151.361 193.718 152.022 194.628 153.321 195.267C154.598 195.704 157.4 195.982 158.482 193.733C159.009 192.821 158.982 190.262 158.949 187.197C158.941 186.421 158.932 185.612 158.932 184.788C158.932 181.591 158.94 178.406 158.947 175.22C158.955 172.034 158.962 168.848 158.962 165.651Z" fill="#F0DB4F"/>
</svg>
